<svg width="1200" height="680" viewBox="0 0 1200 680" fill="none" xmlns="http://www.w3.org/2000/svg" role="img" aria-labelledby="title desc">
  <title id="title">ACEHarness 工程任务闭环</title>
  <desc id="desc">展示 ACEHarness 以 Spec、状态机、议场、Git 断点、记忆和诊断组成的工程任务闭环。</desc>
  <defs>
    <linearGradient id="bg" x1="0" y1="0" x2="1" y2="1">
      <stop offset="0%" stop-color="#07111F"/>
      <stop offset="55%" stop-color="#101827"/>
      <stop offset="100%" stop-color="#171329"/>
    </linearGradient>
    <linearGradient id="panel" x1="0" y1="0" x2="1" y2="1">
      <stop offset="0%" stop-color="#111C31" stop-opacity="0.98"/>
      <stop offset="100%" stop-color="#0B1220" stop-opacity="0.98"/>
    </linearGradient>
    <linearGradient id="center" x1="0" y1="0" x2="1" y2="1">
      <stop offset="0%" stop-color="#1D4ED8"/>
      <stop offset="52%" stop-color="#0EA5E9"/>
      <stop offset="100%" stop-color="#7C3AED"/>
    </linearGradient>
    <radialGradient id="glowBlue" cx="50%" cy="50%" r="50%">
      <stop offset="0%" stop-color="#38BDF8" stop-opacity="0.22"/>
      <stop offset="100%" stop-color="#38BDF8" stop-opacity="0"/>
    </radialGradient>
    <radialGradient id="glowGreen" cx="50%" cy="50%" r="50%">
      <stop offset="0%" stop-color="#22C55E" stop-opacity="0.16"/>
      <stop offset="100%" stop-color="#22C55E" stop-opacity="0"/>
    </radialGradient>
    <filter id="shadow" x="-14%" y="-18%" width="128%" height="148%">
      <feDropShadow dx="0" dy="18" stdDeviation="22" flood-color="#020617" flood-opacity="0.38"/>
    </filter>
    <marker id="loopArrow" markerWidth="10" markerHeight="10" refX="8" refY="5" orient="auto" markerUnits="strokeWidth">
      <path d="M1 1L9 5L1 9Z" fill="#64748B"/>
    </marker>
    <style>
      .font { font-family: Arial, "Microsoft YaHei", "PingFang SC", sans-serif; }
      .title { fill: #F8FAFC; font-size: 32px; font-weight: 800; }
      .subtitle { fill: #CBD5E1; font-size: 16px; }
      .h { fill: #F8FAFC; font-size: 21px; font-weight: 800; }
      .p { fill: #CBD5E1; font-size: 14px; }
    </style>
  </defs>

  <rect width="1200" height="680" rx="30" fill="url(#bg)"/>
  <circle cx="150" cy="95" r="240" fill="url(#glowBlue)"/>
  <circle cx="1040" cy="620" r="280" fill="url(#glowGreen)"/>
  <path d="M0 106C210 42 370 164 570 150C780 134 938 44 1200 102V0H0Z" fill="#FFFFFF" fill-opacity="0.045"/>
  <path d="M0 560C226 486 420 606 626 576C858 542 1010 486 1200 522V680H0Z" fill="#FFFFFF" fill-opacity="0.035"/>

  <rect x="34" y="34" width="1132" height="612" rx="26" fill="#0B1220" fill-opacity="0.72" stroke="#334155"/>
  <g class="font">
    <text x="70" y="86" class="title">ACEHarness 工程任务闭环</text>
    <text x="70" y="120" class="subtitle">从需求计划、状态机执行到协作、断点、记忆和诊断，形成可治理的本地 Multi-Agent 工作系统。</text>
  </g>

  <g transform="translate(0,-10)">
    <g stroke="#64748B" stroke-width="3" stroke-linecap="round" stroke-linejoin="round" fill="none" opacity="0.92">
      <path d="M414 238C492 198 708 198 786 238" marker-end="url(#loopArrow)"/>
      <path d="M980 346C1008 374 1008 402 980 430" marker-end="url(#loopArrow)"/>
      <path d="M786 522C708 562 492 562 414 522" marker-end="url(#loopArrow)"/>
      <path d="M220 430C192 402 192 374 220 346" marker-end="url(#loopArrow)"/>
    </g>

    <g filter="url(#shadow)">
      <circle cx="600" cy="370" r="118" fill="url(#center)"/>
      <circle cx="600" cy="370" r="90" fill="#FFFFFF" fill-opacity="0.10" stroke="#FFFFFF" stroke-opacity="0.35"/>
      <circle cx="600" cy="370" r="132" stroke="#38BDF8" stroke-opacity="0.20" stroke-width="2"/>
      <text x="600" y="336" text-anchor="middle" fill="#FFFFFF" class="font" font-size="27" font-weight="800">工程任务闭环</text>
      <text x="600" y="371" text-anchor="middle" fill="#DBEAFE" class="font" font-size="15">Plan / Run / Agora / Memory</text>
      <rect x="509" y="394" width="182" height="34" rx="17" fill="#0B1220" fill-opacity="0.36" stroke="#FFFFFF" stroke-opacity="0.22"/>
      <text x="600" y="416" text-anchor="middle" fill="#FFFFFF" class="font" font-size="15" font-weight="800">Git-backed control</text>
    </g>

    <g class="font" filter="url(#shadow)">
      <rect x="72" y="174" width="330" height="154" rx="20" fill="url(#panel)" stroke="#334155"/>
      <rect x="72" y="174" width="7" height="154" rx="4" fill="#38BDF8"/>
      <text x="108" y="218" fill="#7DD3FC" font-size="13" font-weight="800">01  PLAN</text>
      <text x="108" y="254" class="h">Spec 驱动计划</text>
      <text x="108" y="284" class="p">requirements / design / tasks</text>
      <text x="108" y="310" class="p">绑定工作流步骤与任务执行</text>

      <rect x="798" y="174" width="330" height="154" rx="20" fill="url(#panel)" stroke="#334155"/>
      <rect x="798" y="174" width="7" height="154" rx="4" fill="#22C55E"/>
      <text x="834" y="218" fill="#86EFAC" font-size="13" font-weight="800">02  RUN</text>
      <text x="834" y="254" class="h">状态机执行控制</text>
      <text x="834" y="284" class="p">高级转移、步骤并发、Supervisor 路由</text>
      <text x="834" y="310" class="p">对抗式迭代、Preflight、Git 断点</text>

      <rect x="72" y="440" width="330" height="154" rx="20" fill="url(#panel)" stroke="#334155"/>
      <rect x="72" y="440" width="7" height="154" rx="4" fill="#F59E0B"/>
      <text x="108" y="484" fill="#FCD34D" font-size="13" font-weight="800">03  AGORA</text>
      <text x="108" y="520" class="h">多 Agent 协作</text>
      <text x="108" y="550" class="p">工作流议场与话题议场</text>
      <text x="108" y="576" class="p">计划、分歧、上下文和复盘</text>

      <rect x="798" y="440" width="330" height="154" rx="20" fill="url(#panel)" stroke="#334155"/>
      <rect x="798" y="440" width="7" height="154" rx="4" fill="#A78BFA"/>
      <text x="834" y="484" fill="#C4B5FD" font-size="13" font-weight="800">04  LEARN</text>
      <text x="834" y="520" class="h">沉淀与治理</text>
      <text x="834" y="550" class="p">多层永久记忆与 Notebook</text>
      <text x="834" y="576" class="p">Skill 市场、模型诊断、渠道接入</text>
    </g>

    <g class="font">
      <rect x="350" y="604" width="500" height="42" rx="21" fill="#0B1220" fill-opacity="0.92" stroke="#334155"/>
      <text x="600" y="631" text-anchor="middle" fill="#CBD5E1" font-size="15" font-weight="800">Spec 负责可追踪计划，运行态负责真实状态，记忆负责长期复用</text>
    </g>
  </g>
</svg>
